<svg id="visual" viewBox="0 0 900 600" width="900" height="600" xmlns="http://www.w3.org/2000/svg" xmlns:xlink="http://www.w3.org/1999/xlink" version="1.1"><path d="M0 43L50 42C100 41 200 39 300 39C400 39 500 41 600 41C700 41 800 39 850 38L900 37L900 0L850 0C800 0 700 0 600 0C500 0 400 0 300 0C200 0 100 0 50 0L0 0Z" fill="#b295ef"></path><path d="M0 91L50 91C100 91 200 91 300 91C400 91 500 91 600 89C700 87 800 83 850 81L900 79L900 35L850 36C800 37 700 39 600 39C500 39 400 37 300 37C200 37 100 39 50 40L0 41Z" fill="#ab8ced"></path><path d="M0 121L50 120C100 119 200 117 300 118C400 119 500 123 600 123C700 123 800 119 850 117L900 115L900 77L850 79C800 81 700 85 600 87C500 89 400 89 300 89C200 89 100 89 50 89L0 89Z" fill="#a584ec"></path><path d="M0 163L50 161C100 159 200 155 300 155C400 155 500 159 600 159C700 159 800 155 850 153L900 151L900 113L850 115C800 117 700 121 600 121C500 121 400 117 300 116C200 115 100 117 50 118L0 119Z" fill="#9e7bea"></path><path d="M0 271L50 272C100 273 200 275 300 276C400 277 500 277 600 274C700 271 800 265 850 262L900 259L900 149L850 151C800 153 700 157 600 157C500 157 400 153 300 153C200 153 100 157 50 159L0 161Z" fill="#9773e8"></path><path d="M0 289L50 290C100 291 200 293 300 295C400 297 500 299 600 297C700 295 800 289 850 286L900 283L900 257L850 260C800 263 700 269 600 272C500 275 400 275 300 274C200 273 100 271 50 270L0 269Z" fill="#906ae6"></path><path d="M0 313L50 315C100 317 200 321 300 323C400 325 500 325 600 323C700 321 800 317 850 315L900 313L900 281L850 284C800 287 700 293 600 295C500 297 400 295 300 293C200 291 100 289 50 288L0 287Z" fill="#8863e0"></path><path d="M0 331L50 333C100 335 200 339 300 342C400 345 500 347 600 346C700 345 800 341 850 339L900 337L900 311L850 313C800 315 700 319 600 321C500 323 400 323 300 321C200 319 100 315 50 313L0 311Z" fill="#815dd5"></path><path d="M0 451L50 449C100 447 200 443 300 443C400 443 500 447 600 448C700 449 800 447 850 446L900 445L900 335L850 337C800 339 700 343 600 344C500 345 400 343 300 340C200 337 100 333 50 331L0 329Z" fill="#7b57cb"></path><path d="M0 511L50 508C100 505 200 499 300 497C400 495 500 497 600 497C700 497 800 495 850 494L900 493L900 443L850 444C800 445 700 447 600 446C500 445 400 441 300 441C200 441 100 445 50 447L0 449Z" fill="#7451c1"></path><path d="M0 577L50 576C100 575 200 573 300 573C400 573 500 575 600 576C700 577 800 577 850 577L900 577L900 491L850 492C800 493 700 495 600 495C500 495 400 493 300 495C200 497 100 503 50 506L0 509Z" fill="#6d4cb7"></path><path d="M0 601L50 601C100 601 200 601 300 601C400 601 500 601 600 601C700 601 800 601 850 601L900 601L900 575L850 575C800 575 700 575 600 574C500 573 400 571 300 571C200 571 100 573 50 574L0 575Z" fill="#6646ad"></path></svg>