<svg xmlns="http://www.w3.org/2000/svg" version="1.1" xmlns:xlink="http://www.w3.org/1999/xlink" xmlns:svgjs="http://svgjs.dev/svgjs" width="1440" height="560" preserveAspectRatio="none" viewBox="0 0 1440 560"><g clip-path="url(&quot;#SvgjsClipPath1030&quot;)" fill="none"><path d="M1389.32 583.7C1399.45 582.95 1407.29 575.41 1413.88 567.67 1419.84 560.67 1423 552.26 1423.88 543.11 1424.88 532.71 1425.57 521.54 1419.08 513.35 1412.01 504.43 1400.7 499.59 1389.32 499.49 1377.85 499.39 1366.12 503.8 1359.01 512.8 1352.44 521.12 1354.54 532.52 1354.87 543.11 1355.18 553.2 1354.3 563.91 1360.83 571.6 1367.77 579.78 1378.62 584.49 1389.32 583.7" fill="rgba(225, 154, 179, 1)" stroke="none"></path><path d="M1405.32 572.7C1415.45 571.95 1423.29 564.41 1429.88 556.67 1435.84 549.67 1439 541.26 1439.88 532.11 1440.88 521.71 1441.57 510.54 1435.08 502.35 1428.01 493.43 1416.7 488.59 1405.32 488.49 1393.85 488.39 1382.12 492.8 1375.01 501.8 1368.44 510.12 1370.54 521.52 1370.87 532.11 1371.18 542.2 1370.3 552.91 1376.83 560.6 1383.77 568.78 1394.62 573.49 1405.32 572.7" fill="none" stroke-width="2" stroke="#c74271"></path><path d="M486.04 127.06C520.72 126.88 550.49 103.58 572.62 76.88 592.66 52.7 598.26 21.68 599.37-9.7 600.54-42.66 600.54-77.69 578.99-102.65 556.22-129.02 520.84-142.57 486.04-140.98 452.56-139.45 423.3-119.72 401.21-94.53 380.63-71.06 371.4-40.91 370.92-9.7 370.43 22.1 378.06 53.47 398.54 77.8 420.95 104.42 451.24 127.24 486.04 127.06" fill="rgba(225, 154, 179, 1)" stroke="none"></path><path d="M502.04 134.06C536.72 133.88 566.49 110.58 588.62 83.88 608.66 59.7 614.26 28.68 615.37-2.7 616.54-35.66 616.54-70.69 594.99-95.65 572.22-122.02 536.84-135.57 502.04-133.98 468.56-132.45 439.3-112.72 417.21-87.53 396.63-64.06 387.4-33.91 386.92-2.7 386.43 29.1 394.06 60.47 414.54 84.8 436.95 111.42 467.24 134.24 502.04 134.06" fill="none" stroke-width="2" stroke="#c74271"></path><path d="M1297.67 34.37C1306.4 34.38 1315.74 35.97 1322.56 30.52 1329.92 24.63 1334.31 15.03 1333.59 5.63 1332.91-3.3 1325.69-9.74 1319.02-15.72 1312.84-21.26 1305.97-26.49 1297.67-26.59 1289.29-26.69 1282.02-21.86 1275.8-16.24 1269.15-10.23 1262.56-3.31 1261.99 5.63 1261.39 15 1265.5 24.6 1272.81 30.49 1279.6 35.96 1288.95 34.36 1297.67 34.37" fill="rgba(225, 154, 179, 1)" stroke="none"></path><path d="M1284.67 24.37C1293.4 24.38 1302.74 25.97 1309.56 20.52 1316.92 14.63 1321.31 5.03 1320.59-4.37 1319.91-13.3 1312.69-19.74 1306.02-25.72 1299.84-31.26 1292.97-36.49 1284.67-36.59 1276.29-36.69 1269.02-31.86 1262.8-26.24 1256.15-20.23 1249.56-13.31 1248.99-4.37 1248.39 5 1252.5 14.6 1259.81 20.49 1266.6 25.96 1275.95 24.36 1284.67 24.37" fill="none" stroke-width="2" stroke="#c74271"></path><path d="M1399.08 374.5C1421.76 374.87 1442.86 362.29 1457.46 344.93 1470.94 328.9 1474.47 307.44 1473.04 286.55 1471.72 267.24 1463.33 249.67 1449.98 235.65 1436.24 221.22 1418.95 210.41 1399.08 208.89 1377.62 207.25 1355.75 212.83 1339.72 227.19 1322.86 242.3 1311.87 263.92 1312.43 286.55 1312.98 308.73 1327.01 327.24 1342.58 343.05 1358.31 359.01 1376.67 374.13 1399.08 374.5" fill="rgba(225, 154, 179, 1)" stroke="none"></path><path d="M1406.08 366.5C1428.76 366.87 1449.86 354.29 1464.46 336.93 1477.94 320.9 1481.47 299.44 1480.04 278.55 1478.72 259.24 1470.33 241.67 1456.98 227.65 1443.24 213.22 1425.95 202.41 1406.08 200.89 1384.62 199.25 1362.75 204.83 1346.72 219.19 1329.86 234.3 1318.87 255.92 1319.43 278.55 1319.98 300.73 1334.01 319.24 1349.58 335.05 1365.31 351.01 1383.67 366.13 1406.08 366.5" fill="none" stroke-width="2" stroke="#c74271"></path><path d="M537.84 578.63C566.53 576.94 594.13 567.3 614.52 547.05 634.97 526.73 644.74 499.12 646.82 470.37 649.1 438.93 648.61 404.17 626.5 381.71 604.29 359.15 569.49 359.06 537.84 359.64 506.97 360.21 475.51 364.45 452.37 384.9 427.89 406.54 412.72 437.7 412.56 470.37 412.4 503.18 426.73 535.21 451.55 556.66 474.9 576.84 507.03 580.45 537.84 578.63" fill="rgba(225, 154, 179, 1)" stroke="none"></path><path d="M554.84 591.63C583.53 589.94 611.13 580.3 631.52 560.05 651.97 539.73 661.74 512.12 663.82 483.37 666.1 451.93 665.61 417.17 643.5 394.71 621.29 372.15 586.49 372.06 554.84 372.64 523.97 373.21 492.51 377.45 469.37 397.9 444.89 419.54 429.72 450.7 429.56 483.37 429.4 516.18 443.73 548.21 468.55 569.66 491.9 589.84 524.03 593.45 554.84 591.63" fill="none" stroke-width="2" stroke="#c74271"></path><path d="M-3.73 138.67C22.96 139.29 52.36 140.07 71.34 121.29 90.38 102.45 89.32 73 89.7 46.22 90.09 18.87 92.07-10.93 73.51-31.02 54.5-51.6 24.29-55.23-3.73-54.95-31.41-54.67-59.92-49.12-79.43-29.48-98.88-9.9-104.98 18.63-104.23 46.22-103.5 72.98-95.1 99.77-75.4 117.89-56.37 135.4-29.58 138.07-3.73 138.67" fill="rgba(225, 154, 179, 1)" stroke="none"></path><path d="M16.27 150.67C42.96 151.29 72.36 152.07 91.34 133.29 110.38 114.45 109.32 85 109.7 58.22 110.09 30.87 112.07 1.07 93.51-19.02 74.5-39.6 44.29-43.23 16.27-42.95-11.41-42.67-39.92-37.12-59.43-17.48-78.88 2.1-84.98 30.63-84.23 58.22-83.5 84.98-75.1 111.77-55.4 129.89-36.37 147.4-9.58 150.07 16.27 150.67" fill="none" stroke-width="2" stroke="#c74271"></path><path d="M882.92 548.99C898.57 550.08 915.16 550.69 927.48 540.97 941.01 530.3 950.83 513.59 949.55 496.41 948.32 479.95 933.16 469.52 921.28 458.05 909.73 446.9 898.96 432.56 882.92 432.08 866.62 431.59 853.08 443.54 842.18 455.67 831.94 467.06 824.71 481.1 825.09 496.41 825.46 511.38 833.08 525.1 844.16 535.17 854.71 544.76 868.69 548 882.92 548.99" fill="rgba(225, 154, 179, 1)" stroke="none"></path><path d="M865.92 567.99C881.57 569.08 898.16 569.69 910.48 559.97 924.01 549.3 933.83 532.59 932.55 515.41 931.32 498.95 916.16 488.52 904.28 477.05 892.73 465.9 881.96 451.56 865.92 451.08 849.62 450.59 836.08 462.54 825.18 474.67 814.94 486.06 807.71 500.1 808.09 515.41 808.46 530.38 816.08 544.1 827.16 554.17 837.71 563.76 851.69 567 865.92 567.99" fill="none" stroke-width="2" stroke="#c74271"></path><path d="M211.13 519.68C237.7 520.44 259.92 501.94 278.38 482.81 296.43 464.11 311.06 441.54 311.59 415.56 312.13 389.1 300.74 363.35 281.21 345.48 262.44 328.31 236.5 321.8 211.13 323.64 187.55 325.35 168.23 339.29 150.52 354.95 131.17 372.06 107.76 389.74 107.15 415.56 106.54 441.65 129.16 460.62 147.6 479.09 166.06 497.58 185.01 518.94 211.13 519.68" fill="rgba(225, 154, 179, 1)" stroke="none"></path><path d="M218.13 504.68C244.7 505.44 266.92 486.94 285.38 467.81 303.43 449.11 318.06 426.54 318.59 400.56 319.13 374.1 307.74 348.35 288.21 330.48 269.44 313.31 243.5 306.8 218.13 308.64 194.55 310.35 175.23 324.29 157.52 339.95 138.17 357.06 114.76 374.74 114.15 400.56 113.54 426.65 136.16 445.62 154.6 464.09 173.06 482.58 192.01 503.94 218.13 504.68" fill="none" stroke-width="2" stroke="#c74271"></path></g><defs><clipPath id="SvgjsClipPath1030"><rect width="1440" height="560" x="0" y="0"></rect></clipPath></defs></svg>