<svg xmlns="http://www.w3.org/2000/svg" version="1.1" xmlns:xlink="http://www.w3.org/1999/xlink" xmlns:svgjs="http://svgjs.dev/svgjs" width="1440" height="250" preserveAspectRatio="none" viewBox="0 0 1440 250"><g mask="url(&quot;#SvgjsMask1000&quot;)" fill="none"><path d="M34 250L284 0L464 0L214 250z" fill="url(&quot;#SvgjsLinearGradient1001&quot;)"></path><path d="M283.6 250L533.6 0L851.6 0L601.6 250z" fill="url(&quot;#SvgjsLinearGradient1001&quot;)"></path><path d="M499.20000000000005 250L749.2 0L1013.2 0L763.2 250z" fill="url(&quot;#SvgjsLinearGradient1001&quot;)"></path><path d="M753.8000000000001 250L1003.8000000000001 0L1263.3000000000002 0L1013.3000000000001 250z" fill="url(&quot;#SvgjsLinearGradient1001&quot;)"></path><path d="M1417 250L1167 0L873 0L1123 250z" fill="url(&quot;#SvgjsLinearGradient1002&quot;)"></path><path d="M1175.4 250L925.4000000000001 0L754.4000000000001 0L1004.4000000000001 250z" fill="url(&quot;#SvgjsLinearGradient1002&quot;)"></path><path d="M958.8 250L708.8 0L465.79999999999995 0L715.8 250z" fill="url(&quot;#SvgjsLinearGradient1002&quot;)"></path><path d="M703.1999999999999 250L453.19999999999993 0L378.19999999999993 0L628.1999999999999 250z" fill="url(&quot;#SvgjsLinearGradient1002&quot;)"></path><path d="M1304.1723773845697 250L1440 114.17237738456981L1440 250z" fill="url(&quot;#SvgjsLinearGradient1001&quot;)"></path><path d="M0 250L135.8276226154302 250L 0 114.17237738456981z" fill="url(&quot;#SvgjsLinearGradient1002&quot;)"></path></g><defs><mask id="SvgjsMask1000"><rect width="1440" height="250" fill="#ffffff"></rect></mask><linearGradient x1="0%" y1="100%" x2="100%" y2="0%" id="SvgjsLinearGradient1001"><stop stop-color="rgba(225, 154, 179, 1)" offset="0"></stop><stop stop-opacity="0" stop-color="rgba(225, 154, 179, 1)" offset="0.66"></stop></linearGradient><linearGradient x1="100%" y1="100%" x2="0%" y2="0%" id="SvgjsLinearGradient1002"><stop stop-color="rgba(225, 154, 179, 1)" offset="0"></stop><stop stop-opacity="0" stop-color="rgba(225, 154, 179, 1)" offset="0.66"></stop></linearGradient></defs></svg>