<svg xmlns="http://www.w3.org/2000/svg" version="1.1" xmlns:xlink="http://www.w3.org/1999/xlink" xmlns:svgjs="http://svgjs.dev/svgjs" width="1440" height="560" preserveAspectRatio="none" viewBox="0 0 1440 560"><g mask="url(&quot;#SvgjsMask1054&quot;)" fill="none"><path d="M189.51 609.56C309.1 602.8 397.8 386.15 613.04 385.53 828.28 384.91 824.81 455.53 1036.58 455.53 1248.34 455.53 1352.79 385.77 1460.11 385.53" stroke="rgba(225, 154, 179, 1)" stroke-width="2"></path><path d="M553 659.75C724.4 607.41 776.19 121.17 1022.08 117.7 1267.97 114.23 1358.9 356.75 1491.16 364.1" stroke="rgba(225, 154, 179, 1)" stroke-width="2"></path><path d="M722.82 637.43C836.54 627.88 889.8 410.16 1110.53 396.46 1331.26 382.76 1390.97 216.31 1498.24 211.66" stroke="rgba(225, 154, 179, 1)" stroke-width="2"></path><path d="M348.38 600.83C460.98 597.49 555.06 428.99 764.84 428.8 974.63 428.61 973.07 498.8 1181.31 498.8 1389.54 498.8 1492.19 429.04 1597.77 428.8" stroke="rgba(225, 154, 179, 1)" stroke-width="2"></path><path d="M643.49 605.69C780.32 555.3 725.44 146.48 1000.88 144.76 1276.32 143.04 1529.62 349.88 1715.66 351.96" stroke="rgba(225, 154, 179, 1)" stroke-width="2"></path></g><defs><mask id="SvgjsMask1054"><rect width="1440" height="560" fill="#ffffff"></rect></mask></defs></svg>