<svg xmlns="http://www.w3.org/2000/svg" version="1.1" xmlns:xlink="http://www.w3.org/1999/xlink" xmlns:svgjs="http://svgjs.dev/svgjs" width="1440" height="560" preserveAspectRatio="none" viewBox="0 0 1440 560"><g mask="url(&quot;#SvgjsMask1012&quot;)" fill="none"><path d="M67.22 185.02L132.17 222.52L132.17 297.52L67.22 335.02L2.27 297.52L2.27 222.52zM197.13 185.02L262.08 222.52L262.08 297.52L197.13 335.02L132.17 297.52L132.17 222.52zM521.9 297.52L586.85 335.02L586.85 410.02L521.9 447.52L456.94 410.02L456.94 335.02zM976.57 -39.98L1041.53 -2.48L1041.53 72.52L976.57 110.02L911.62 72.52L911.62 -2.48zM976.57 185.02L1041.53 222.52L1041.53 297.52L976.57 335.02L911.62 297.52L911.62 222.52zM1041.53 522.52L1106.48 560.02L1106.48 635.02L1041.53 672.52L976.57 635.02L976.57 560.02zM1496.2 185.02L1561.16 222.52L1561.16 297.52L1496.2 335.02L1431.25 297.52L1431.25 222.52zM1496.2 410.02L1561.16 447.52L1561.16 522.52L1496.2 560.02L1431.25 522.52L1431.25 447.52z" stroke="rgba(225, 154, 179, 1)" stroke-width="2"></path><path d="M59.72 185.02 a7.5 7.5 0 1 0 15 0 a7.5 7.5 0 1 0 -15 0zM124.67 222.52 a7.5 7.5 0 1 0 15 0 a7.5 7.5 0 1 0 -15 0zM124.67 297.52 a7.5 7.5 0 1 0 15 0 a7.5 7.5 0 1 0 -15 0zM59.72 335.02 a7.5 7.5 0 1 0 15 0 a7.5 7.5 0 1 0 -15 0zM-5.23 297.52 a7.5 7.5 0 1 0 15 0 a7.5 7.5 0 1 0 -15 0zM-5.23 222.52 a7.5 7.5 0 1 0 15 0 a7.5 7.5 0 1 0 -15 0zM189.63 185.02 a7.5 7.5 0 1 0 15 0 a7.5 7.5 0 1 0 -15 0zM254.58 222.52 a7.5 7.5 0 1 0 15 0 a7.5 7.5 0 1 0 -15 0zM254.58 297.52 a7.5 7.5 0 1 0 15 0 a7.5 7.5 0 1 0 -15 0zM189.63 335.02 a7.5 7.5 0 1 0 15 0 a7.5 7.5 0 1 0 -15 0zM514.4 297.52 a7.5 7.5 0 1 0 15 0 a7.5 7.5 0 1 0 -15 0zM579.35 335.02 a7.5 7.5 0 1 0 15 0 a7.5 7.5 0 1 0 -15 0zM579.35 410.02 a7.5 7.5 0 1 0 15 0 a7.5 7.5 0 1 0 -15 0zM514.4 447.52 a7.5 7.5 0 1 0 15 0 a7.5 7.5 0 1 0 -15 0zM449.44 410.02 a7.5 7.5 0 1 0 15 0 a7.5 7.5 0 1 0 -15 0zM449.44 335.02 a7.5 7.5 0 1 0 15 0 a7.5 7.5 0 1 0 -15 0zM969.07 -39.98 a7.5 7.5 0 1 0 15 0 a7.5 7.5 0 1 0 -15 0zM1034.03 -2.48 a7.5 7.5 0 1 0 15 0 a7.5 7.5 0 1 0 -15 0zM1034.03 72.52 a7.5 7.5 0 1 0 15 0 a7.5 7.5 0 1 0 -15 0zM969.07 110.02 a7.5 7.5 0 1 0 15 0 a7.5 7.5 0 1 0 -15 0zM904.12 72.52 a7.5 7.5 0 1 0 15 0 a7.5 7.5 0 1 0 -15 0zM904.12 -2.48 a7.5 7.5 0 1 0 15 0 a7.5 7.5 0 1 0 -15 0zM969.07 185.02 a7.5 7.5 0 1 0 15 0 a7.5 7.5 0 1 0 -15 0zM1034.03 222.52 a7.5 7.5 0 1 0 15 0 a7.5 7.5 0 1 0 -15 0zM1034.03 297.52 a7.5 7.5 0 1 0 15 0 a7.5 7.5 0 1 0 -15 0zM969.07 335.02 a7.5 7.5 0 1 0 15 0 a7.5 7.5 0 1 0 -15 0zM904.12 297.52 a7.5 7.5 0 1 0 15 0 a7.5 7.5 0 1 0 -15 0zM904.12 222.52 a7.5 7.5 0 1 0 15 0 a7.5 7.5 0 1 0 -15 0zM1034.03 522.52 a7.5 7.5 0 1 0 15 0 a7.5 7.5 0 1 0 -15 0zM1098.98 560.02 a7.5 7.5 0 1 0 15 0 a7.5 7.5 0 1 0 -15 0zM1098.98 635.02 a7.5 7.5 0 1 0 15 0 a7.5 7.5 0 1 0 -15 0zM1034.03 672.52 a7.5 7.5 0 1 0 15 0 a7.5 7.5 0 1 0 -15 0zM969.07 635.02 a7.5 7.5 0 1 0 15 0 a7.5 7.5 0 1 0 -15 0zM969.07 560.02 a7.5 7.5 0 1 0 15 0 a7.5 7.5 0 1 0 -15 0zM1488.7 185.02 a7.5 7.5 0 1 0 15 0 a7.5 7.5 0 1 0 -15 0zM1553.66 222.52 a7.5 7.5 0 1 0 15 0 a7.5 7.5 0 1 0 -15 0zM1553.66 297.52 a7.5 7.5 0 1 0 15 0 a7.5 7.5 0 1 0 -15 0zM1488.7 335.02 a7.5 7.5 0 1 0 15 0 a7.5 7.5 0 1 0 -15 0zM1423.75 297.52 a7.5 7.5 0 1 0 15 0 a7.5 7.5 0 1 0 -15 0zM1423.75 222.52 a7.5 7.5 0 1 0 15 0 a7.5 7.5 0 1 0 -15 0zM1488.7 410.02 a7.5 7.5 0 1 0 15 0 a7.5 7.5 0 1 0 -15 0zM1553.66 447.52 a7.5 7.5 0 1 0 15 0 a7.5 7.5 0 1 0 -15 0zM1553.66 522.52 a7.5 7.5 0 1 0 15 0 a7.5 7.5 0 1 0 -15 0zM1488.7 560.02 a7.5 7.5 0 1 0 15 0 a7.5 7.5 0 1 0 -15 0zM1423.75 522.52 a7.5 7.5 0 1 0 15 0 a7.5 7.5 0 1 0 -15 0zM1423.75 447.52 a7.5 7.5 0 1 0 15 0 a7.5 7.5 0 1 0 -15 0z" fill="rgba(225, 154, 179, 1)"></path><path d="M42.26 109.27L85.56 134.27L85.56 184.27L42.26 209.27L-1.04 184.27L-1.04 134.27zM128.87 -40.73L172.17 -15.73L172.17 34.27L128.87 59.27L85.56 34.27L85.56 -15.73zM302.07 259.27L345.38 284.27L345.38 334.27L302.07 359.27L258.77 334.27L258.77 284.27zM388.68 409.27L431.98 434.27L431.98 484.27L388.68 509.27L345.38 484.27L345.38 434.27zM431.98 484.27L475.29 509.27L475.29 559.27L431.98 584.27L388.68 559.27L388.68 509.27zM518.59 484.27L561.89 509.27L561.89 559.27L518.59 584.27L475.29 559.27L475.29 509.27zM605.19 34.27L648.5 59.27L648.5 109.27L605.19 134.27L561.89 109.27L561.89 59.27zM561.89 259.27L605.19 284.27L605.19 334.27L561.89 359.27L518.59 334.27L518.59 284.27zM648.5 259.27L691.8 284.27L691.8 334.27L648.5 359.27L605.19 334.27L605.19 284.27zM778.4 34.27L821.71 59.27L821.71 109.27L778.4 134.27L735.1 109.27L735.1 59.27zM1124.82 184.27L1168.13 209.27L1168.13 259.27L1124.82 284.27L1081.52 259.27L1081.52 209.27zM1211.43 184.27L1254.73 209.27L1254.73 259.27L1211.43 284.27L1168.13 259.27L1168.13 209.27zM1298.03 334.27L1341.34 359.27L1341.34 409.27L1298.03 434.27L1254.73 409.27L1254.73 359.27zM1254.73 409.27L1298.03 434.27L1298.03 484.27L1254.73 509.27L1211.43 484.27L1211.43 434.27zM1471.24 34.27L1514.55 59.27L1514.55 109.27L1471.24 134.27L1427.94 109.27L1427.94 59.27zM1471.24 484.27L1514.55 509.27L1514.55 559.27L1471.24 584.27L1427.94 559.27L1427.94 509.27z" stroke="rgba(225, 154, 179, 1)" stroke-width="2"></path></g><defs><mask id="SvgjsMask1012"><rect width="1440" height="560" fill="#ffffff"></rect></mask></defs></svg>