<svg xmlns="http://www.w3.org/2000/svg" version="1.1" xmlns:xlink="http://www.w3.org/1999/xlink" xmlns:svgjs="http://svgjs.dev/svgjs" width="1440" height="560" preserveAspectRatio="none" viewBox="0 0 1440 560"><g mask="url(&quot;#SvgjsMask1034&quot;)" fill="none"><path d="M213.2 648.08C372.87 647.62 514.78 537.77 841.63 534.24 1168.49 530.71 1301.37 292.19 1470.07 287.84" stroke="rgba(225, 154, 179, 0.4745098039215686)" stroke-width="2"></path><path d="M594.16 641.38C757.39 620.15 853.6 246.36 1120.45 245.74 1387.31 245.12 1504.36 459.86 1646.75 464.14" stroke="rgba(225, 154, 179, 0.4745098039215686)" stroke-width="2"></path><path d="M686.31 630.37C809.91 629.6 911.12 522.12 1167.44 516.54 1423.77 510.96 1514.23 282.34 1648.58 275.74" stroke="rgba(225, 154, 179, 0.4745098039215686)" stroke-width="2"></path><path d="M204.4 654.17C351.81 632.32 425.44 286.04 670.25 282.31 915.07 278.58 903.18 352.31 1136.11 352.31 1369.03 352.31 1484.19 282.51 1601.96 282.31" stroke="rgba(225, 154, 179, 0.4745098039215686)" stroke-width="2"></path><path d="M254.21 578.99C376.85 571.11 464.85 340.7 683.72 339.9 902.6 339.1 898.48 409.9 1113.24 409.9 1327.99 409.9 1433.96 340.13 1542.75 339.9" stroke="rgba(225, 154, 179, 0.4745098039215686)" stroke-width="2"></path></g><defs><mask id="SvgjsMask1034"><rect width="1440" height="560" fill="#ffffff"></rect></mask></defs></svg>