<svg xmlns="http://www.w3.org/2000/svg" version="1.1" xmlns:xlink="http://www.w3.org/1999/xlink" xmlns:svgjs="http://svgjs.dev/svgjs" width="1440" height="560" preserveAspectRatio="none" viewBox="0 0 1440 560"><g clip-path="url(&quot;#SvgjsClipPath1028&quot;)" fill="none"><path d="M307.49 79.29C318.12 79.14 329.4 78.46 337.03 71.06 344.74 63.58 346.46 52.26 346.4 41.52 346.34 30.86 343.84 20.23 336.69 12.32 329.18 4.01 318.67-0.81 307.49-1.53 295.51-2.31 282.51-0.44 274.24 8.27 266.1 16.84 266.09 29.71 266.62 41.52 267.12 52.65 268.91 64.36 277.09 71.92 285.05 79.28 296.65 79.44 307.49 79.29" fill="rgba(225, 154, 179, 1)" stroke="none"></path><path d="M291.49 67.29C302.12 67.14 313.4 66.46 321.03 59.06 328.74 51.58 330.46 40.26 330.4 29.52 330.34 18.86 327.84 8.23 320.69 0.32 313.18-7.99 302.67-12.81 291.49-13.53 279.51-14.31 266.51-12.44 258.24-3.73 250.1 4.84 250.09 17.71 250.62 29.52 251.12 40.65 252.91 52.36 261.09 59.92 269.05 67.28 280.65 67.44 291.49 67.29" fill="none" stroke-width="2" stroke="#c74271"></path><path d="M1109.45 118.66C1122.83 118.33 1136.95 117.42 1146.6 108.15 1156.38 98.75 1159.25 84.57 1159.02 71 1158.79 57.69 1154.93 44.34 1145.36 35.09 1135.93 25.97 1122.57 22.78 1109.45 23.06 1096.64 23.34 1084.1 27.54 1075.07 36.62 1066.07 45.67 1062.59 58.26 1061.78 71 1060.91 84.82 1060.62 100.24 1070.42 110.03 1080.22 119.82 1095.6 119 1109.45 118.66" fill="rgba(140, 102, 229, 1)" stroke="none"></path><path d="M1123.45 103.66C1136.83 103.33 1150.95 102.42 1160.6 93.15 1170.38 83.75 1173.25 69.57 1173.02 56 1172.79 42.69 1168.93 29.34 1159.36 20.09 1149.93 10.97 1136.57 7.78 1123.45 8.06 1110.64 8.34 1098.1 12.54 1089.07 21.62 1080.07 30.67 1076.59 43.26 1075.78 56 1074.91 69.82 1074.62 85.24 1084.42 95.03 1094.22 104.82 1109.6 104 1123.45 103.66" fill="none" stroke-width="2" stroke="#5322c6"></path><path d="M1439.29 307.86C1450.16 308.49 1460.86 303.99 1468.47 296.2 1476.01 288.49 1479.84 277.78 1479.21 267.02 1478.61 256.83 1472.3 248.45 1465.23 241.08 1457.96 233.5 1449.71 226.71 1439.29 225.4 1427.46 223.91 1413.98 224.87 1405.89 233.62 1397.94 242.22 1399.36 255.4 1400.82 267.02 1402.06 276.93 1406.48 285.71 1413.33 292.98 1420.44 300.53 1428.94 307.26 1439.29 307.86" fill="rgba(225, 154, 179, 1)" stroke="none"></path><path d="M1432.29 320.86C1443.16 321.49 1453.86 316.99 1461.47 309.2 1469.01 301.49 1472.84 290.78 1472.21 280.02 1471.61 269.83 1465.3 261.45 1458.23 254.08 1450.96 246.5 1442.71 239.71 1432.29 238.4 1420.46 236.91 1406.98 237.87 1398.89 246.62 1390.94 255.22 1392.36 268.4 1393.82 280.02 1395.06 289.93 1399.48 298.71 1406.33 305.98 1413.44 313.53 1421.94 320.26 1432.29 320.86" fill="none" stroke-width="2" stroke="#c74271"></path><path d="M1216.82 544.66C1226.91 545.18 1238.39 547.8 1245.7 540.83 1253.07 533.81 1252.35 522.06 1251.14 511.95 1250.09 503.17 1245.76 495.51 1239.54 489.23 1233.28 482.9 1225.72 477.38 1216.82 477.27 1207.84 477.16 1199.73 482.16 1193.56 488.69 1187.58 495.02 1184.55 503.25 1184.06 511.95 1183.53 521.26 1184.18 531.41 1190.77 538 1197.36 544.59 1207.51 544.18 1216.82 544.66" fill="rgba(225, 154, 179, 1)" stroke="none"></path><path d="M1226.82 558.66C1236.91 559.18 1248.39 561.8 1255.7 554.83 1263.07 547.81 1262.35 536.06 1261.14 525.95 1260.09 517.17 1255.76 509.51 1249.54 503.23 1243.28 496.9 1235.72 491.38 1226.82 491.27 1217.84 491.16 1209.73 496.16 1203.56 502.69 1197.58 509.02 1194.55 517.25 1194.06 525.95 1193.53 535.26 1194.18 545.41 1200.77 552 1207.36 558.59 1217.51 558.18 1226.82 558.66" fill="none" stroke-width="2" stroke="#c74271"></path><path d="M88.37 221.21C112.68 223.71 138.43 214.19 154 195.35 168.65 177.62 165.28 152.68 163.97 129.72 162.76 108.62 161.23 86.72 146.89 71.2 132.08 55.18 110.19 47.78 88.37 47.93 66.7 48.08 46.43 57.15 30.65 72 14.33 87.36 0.63 107.33 1.5 129.72 2.35 151.54 19.92 167.29 34.96 183.13 50.61 199.61 65.76 218.89 88.37 221.21" fill="rgba(140, 102, 229, 1)" stroke="none"></path><path d="M71.37 240.21C95.68 242.71 121.43 233.19 137 214.35 151.65 196.62 148.28 171.68 146.97 148.72 145.76 127.62 144.23 105.72 129.89 90.2 115.08 74.18 93.19 66.78 71.37 66.93 49.7 67.08 29.43 76.15 13.65 91-2.67 106.36-16.37 126.33-15.5 148.72-14.65 170.54 2.92 186.29 17.96 202.13 33.61 218.61 48.76 237.89 71.37 240.21" fill="none" stroke-width="2" stroke="#5322c6"></path><path d="M861.03 82.39C883.25 81.12 904.79 74.17 920.69 58.59 936.75 42.86 946.99 21.4 946.19-1.07 945.42-22.88 932.55-41.75 916.61-56.65 901.28-70.98 882-80.18 861.03-80.67 839.55-81.17 819.35-73 802.8-59.3 784.25-43.94 766.54-25.09 764.87-1.07 763.12 24.17 775.01 49.26 794.12 65.84 812.15 81.49 837.19 83.76 861.03 82.39" fill="rgba(225, 154, 179, 1)" stroke="none"></path><path d="M875.03 93.39C897.25 92.12 918.79 85.17 934.69 69.59 950.75 53.86 960.99 32.4 960.19 9.93 959.42-11.88 946.55-30.75 930.61-45.65 915.28-59.98 896-69.18 875.03-69.67 853.55-70.17 833.35-62 816.8-48.3 798.25-32.94 780.54-14.09 778.87 9.93 777.12 35.17 789.01 60.26 808.12 76.84 826.15 92.49 851.19 94.76 875.03 93.39" fill="none" stroke-width="2" stroke="#c74271"></path><path d="M1053.96 412.45C1078.52 413.04 1102.57 401.28 1118.13 382.27 1132.5 364.71 1132.38 340.76 1131.19 318.1 1130.08 297.01 1125.98 275.92 1111.71 260.35 1096.83 244.13 1075.95 234.73 1053.96 233.88 1031.07 232.99 1007.8 239.54 991.55 255.69 975.26 271.88 968.96 295.13 969.19 318.1 969.42 340.82 977.62 362.36 992.8 379.26 1008.91 397.2 1029.86 411.87 1053.96 412.45" fill="rgba(225, 154, 179, 1)" stroke="none"></path><path d="M1065.96 420.45C1090.52 421.04 1114.57 409.28 1130.13 390.27 1144.5 372.71 1144.38 348.76 1143.19 326.1 1142.08 305.01 1137.98 283.92 1123.71 268.35 1108.83 252.13 1087.95 242.73 1065.96 241.88 1043.07 240.99 1019.8 247.54 1003.55 263.69 987.26 279.88 980.96 303.13 981.19 326.1 981.42 348.82 989.62 370.36 1004.8 387.26 1020.91 405.2 1041.86 419.87 1065.96 420.45" fill="none" stroke-width="2" stroke="#c74271"></path><path d="M171.82 503.34C195.72 503.05 213.17 482.57 228.83 464.51 243.07 448.09 253.06 429.15 254.94 407.5 257.03 383.49 256.12 357.27 239.67 339.65 222.86 321.65 196.45 318.88 171.82 318.47 146.64 318.05 119.36 319.43 101.66 337.34 84.02 355.18 81.5 382.51 83.79 407.5 85.86 430.1 98.08 449.18 113.43 465.89 129.69 483.6 147.78 503.63 171.82 503.34" fill="rgba(140, 102, 229, 1)" stroke="none"></path><path d="M181.82 494.34C205.72 494.05 223.17 473.57 238.83 455.51 253.07 439.09 263.06 420.15 264.94 398.5 267.03 374.49 266.12 348.27 249.67 330.65 232.86 312.65 206.45 309.88 181.82 309.47 156.64 309.05 129.36 310.43 111.66 328.34 94.02 346.18 91.5 373.51 93.79 398.5 95.86 421.1 108.08 440.18 123.43 456.89 139.69 474.6 157.78 494.63 181.82 494.34" fill="none" stroke-width="2" stroke="#5322c6"></path></g><defs><clipPath id="SvgjsClipPath1028"><rect width="1440" height="560" x="0" y="0"></rect></clipPath></defs></svg>